<svg width="128" height="128" viewBox="0 0 128 128" fill="none" xmlns="http://www.w3.org/2000/svg">
<g clip-path="url(#clip0_10_154)">
<rect width="128" height="128" rx="8" fill="url(#paint0_linear_10_154)"/>
<g filter="url(#filter0_d_10_154)">
<path d="M113.781 98.2168C113.97 94.8569 111.674 91.853 108.363 91.2532C95.2521 88.8781 81.7459 87.6378 67.9499 87.6378C54.154 87.6378 40.6478 88.8781 27.5368 91.2532C24.2255 91.853 21.9302 94.8569 22.119 98.2168L22.3153 101.71C22.551 105.904 26.4955 108.876 30.627 108.114C43.0039 105.831 55.7626 104.638 68.7999 104.638C81.267 104.638 93.4793 105.729 105.347 107.821C109.462 108.546 113.367 105.578 113.602 101.406L113.781 98.2168Z" fill="white"/>
</g>
<g filter="url(#filter1_d_10_154)">
<path d="M38.2 27.6C38.2 35.1111 32.1111 41.2 24.6 41.2C17.0889 41.2 11 35.1111 11 27.6C11 20.0889 17.0889 14 24.6 14C32.1111 14 38.2 20.0889 38.2 27.6Z" fill="white"/>
</g>
<path d="M44.996 28.0181C44.8572 34.9216 41.2891 40.9835 35.9255 44.5701C41.5098 56.378 43.55 71.3379 33.5554 84.6094C44.7694 82.8912 56.2557 82 67.9502 82C80.6407 82 93.086 83.0495 105.204 85.0663C102.568 65.2148 88.8322 31.541 44.996 28.0181Z" fill="white"/>
</g>
<defs>
<filter id="filter0_d_10_154" x="18.7082" y="87.6378" width="98.4836" height="27.3958" filterUnits="userSpaceOnUse" color-interpolation-filters="sRGB">
<feFlood flood-opacity="0" result="BackgroundImageFix"/>
<feColorMatrix in="SourceAlpha" type="matrix" values="0 0 0 0 0 0 0 0 0 0 0 0 0 0 0 0 0 0 127 0" result="hardAlpha"/>
<feOffset dy="3.4"/>
<feGaussianBlur stdDeviation="1.7"/>
<feComposite in2="hardAlpha" operator="out"/>
<feColorMatrix type="matrix" values="0 0 0 0 0.145098 0 0 0 0 0.0627451 0 0 0 0 0.12549 0 0 0 0.25 0"/>
<feBlend mode="normal" in2="BackgroundImageFix" result="effect1_dropShadow_10_154"/>
<feBlend mode="normal" in="SourceGraphic" in2="effect1_dropShadow_10_154" result="shape"/>
</filter>
<filter id="filter1_d_10_154" x="7.6" y="14" width="34" height="34" filterUnits="userSpaceOnUse" color-interpolation-filters="sRGB">
<feFlood flood-opacity="0" result="BackgroundImageFix"/>
<feColorMatrix in="SourceAlpha" type="matrix" values="0 0 0 0 0 0 0 0 0 0 0 0 0 0 0 0 0 0 127 0" result="hardAlpha"/>
<feOffset dy="3.4"/>
<feGaussianBlur stdDeviation="1.7"/>
<feComposite in2="hardAlpha" operator="out"/>
<feColorMatrix type="matrix" values="0 0 0 0 0.145098 0 0 0 0 0.0627451 0 0 0 0 0.12549 0 0 0 0.25 0"/>
<feBlend mode="normal" in2="BackgroundImageFix" result="effect1_dropShadow_10_154"/>
<feBlend mode="normal" in="SourceGraphic" in2="effect1_dropShadow_10_154" result="shape"/>
</filter>
<linearGradient id="paint0_linear_10_154" x1="64" y1="0" x2="64" y2="224" gradientUnits="userSpaceOnUse">
<stop stop-color="#131019"/>
<stop offset="1" stop-color="#FA1E4E"/>
</linearGradient>
<clipPath id="clip0_10_154">
<rect width="128" height="128" fill="white"/>
</clipPath>
</defs>
</svg>
